<svg xmlns="http://www.w3.org/2000/svg" height="598pt" version="1.1" viewBox="-39 1 598 598.702" width="598pt">
<g id="surface1">
<path d="M 0.371094 389.351562 C 0.0546875 471.125 38.589844 548.191406 104.199219 597.003906 C 105.925781 598.300781 108.03125 599 110.191406 599 L 409.691406 599 C 411.851562 599 413.953125 598.300781 415.679688 597.003906 C 509.863281 528.066406 544.84375 403.753906 500.4375 295.816406 C 500.105469 295.085938 499.65625 294.410156 499.109375 293.820312 L 499.289062 293.691406 L 407.863281 163.964844 C 405.023438 159.933594 399.660156 158.578125 395.242188 160.78125 L 379.742188 168.539062 L 379.742188 126.386719 C 403.046875 125.550781 426.121094 121.425781 448.277344 114.140625 L 462.761719 109.304688 C 468 107.582031 470.847656 101.941406 469.125 96.703125 C 468.574219 95.015625 467.578125 93.507812 466.246094 92.335938 L 379.742188 15.484375 L 379.742188 0 L 359.773438 0 L 359.773438 15.484375 L 273.265625 92.355469 C 269.132812 96.003906 268.734375 102.3125 272.382812 106.445312 C 273.554688 107.777344 275.0625 108.773438 276.75 109.328125 L 291.238281 114.148438 C 313.390625 121.433594 336.464844 125.554688 359.773438 126.390625 L 359.773438 178.523438 L 339.484375 188.683594 L 273.855469 160.5625 C 270.753906 159.214844 267.183594 159.542969 264.382812 161.429688 L 220.003906 190.992188 L 220.003906 59.898438 C 219.972656 26.832031 193.175781 0.03125 160.105469 0 L 30.324219 0 C 24.808594 0 20.339844 4.46875 20.339844 9.984375 L 20.339844 49.914062 C 20.339844 55.429688 24.808594 59.898438 30.324219 59.898438 L 150.121094 59.898438 C 155.636719 59.898438 160.105469 64.367188 160.105469 69.882812 L 160.105469 173.527344 L 134.617188 160.78125 C 130.398438 158.675781 125.285156 159.808594 122.347656 163.496094 L 19.691406 292.261719 C 19.054688 293.027344 18.535156 293.886719 18.152344 294.808594 C 6.363281 324.933594 0.332031 357 0.371094 389.351562 Z M 369.757812 33.324219 L 440.058594 95.820312 C 394.339844 110.496094 345.175781 110.496094 299.453125 95.820312 Z M 406.324219 579.035156 L 113.554688 579.035156 C 31.535156 515.738281 -0.507812 406.894531 34.125 309.253906 C 36.3125 309.40625 38.308594 309.484375 40.308594 309.484375 C 68.972656 309.507812 96.253906 297.175781 115.183594 275.648438 C 151.59375 317.003906 214.632812 321.007812 255.984375 284.597656 C 259.152344 281.808594 262.140625 278.816406 264.933594 275.648438 C 301.34375 317.003906 364.382812 321.007812 405.734375 284.597656 C 408.90625 281.808594 411.894531 278.816406 414.683594 275.648438 C 432.378906 295.777344 457.4375 307.917969 484.199219 309.332031 C 493.984375 334.894531 499.179688 361.980469 499.542969 389.351562 C 499.832031 463.675781 465.34375 533.855469 406.324219 579.035156 Z M 150.121094 39.933594 L 40.304688 39.933594 L 40.304688 19.96875 L 160.105469 19.96875 C 182.160156 19.96875 200.039062 37.847656 200.039062 59.898438 L 200.039062 193.496094 L 180.070312 183.511719 L 180.070312 69.882812 C 180.074219 53.34375 166.664062 39.933594 150.121094 39.933594 Z M 132.921875 182.265625 L 205.558594 218.636719 C 208.761719 220.226562 212.570312 219.988281 215.542969 218.003906 L 270.941406 181.066406 L 335.832031 208.882812 C 338.53125 210.027344 341.597656 209.941406 344.226562 208.640625 L 396.453125 182.527344 L 470.226562 287.179688 C 450.847656 282.355469 433.980469 270.441406 422.957031 253.785156 C 419.53125 249.195312 413.035156 248.246094 408.441406 251.671875 C 407.636719 252.269531 406.925781 252.984375 406.324219 253.785156 C 382.007812 290.546875 332.492188 300.632812 295.730469 276.3125 C 286.785156 270.394531 279.125 262.730469 273.207031 253.785156 C 269.785156 249.195312 263.285156 248.246094 258.691406 251.671875 C 257.886719 252.269531 257.175781 252.984375 256.574219 253.785156 C 232.257812 290.546875 182.742188 300.632812 145.984375 276.3125 C 137.035156 270.394531 129.375 262.730469 123.457031 253.785156 C 120.035156 249.195312 113.535156 248.246094 108.941406 251.671875 C 108.136719 252.269531 107.425781 252.984375 106.828125 253.785156 C 93.492188 273.894531 71.761719 286.878906 47.734375 289.085938 Z M 132.921875 182.265625 " style=" stroke:none;fill-rule:nonzero;fill:rgb(0%,0%,0%);fill-opacity:1;" />
<path d="M 70.253906 369.382812 L 50.289062 369.382812 C 50.28125 436.160156 74.519531 500.667969 118.496094 550.921875 L 122.636719 555.652344 L 137.671875 542.515625 L 133.519531 537.769531 C 92.726562 491.160156 70.246094 431.324219 70.253906 369.382812 Z M 70.253906 369.382812 " style=" stroke:none;fill-rule:nonzero;fill:rgb(0%,0%,0%);fill-opacity:1;" />
</g>
</svg>